<?xml version="1.0" encoding="utf-8"?>
<!-- Generator: Adobe Illustrator 22.0.1, SVG Export Plug-In . SVG Version: 6.00 Build 0)  -->
<svg version="1.1" id="Layer_1" xmlns="http://www.w3.org/2000/svg" xmlns:xlink="http://www.w3.org/1999/xlink" x="0px" y="0px"
	 viewBox="0 0 230.6 59.3" style="enable-background:new 0 0 230.6 59.3;" xml:space="preserve">
<style type="text/css">
	.st0{fill:#FFFFFF;}
</style>
<title>logo wit</title>
<g id="logo">
	<path class="st0" d="M87.3,22.2L87.3,22.2 M230.6,22.2L230.6,22.2 M87.3,37.1L87.3,37.1 M230.6,37.1L230.6,37.1 M114.4,22.7h-5.1
		l-3.2,8.7l0,0l-3.6-8.7h-5.2v2.6h1.1v9h-1.1v2.6h5.4v-2.6h-1.2v-5.7l0,0l3.3,8.3h2.1l3-8.3l0,0v5.7h-1.1v2.6h5.6v-2.6h-1.1v-9h1.1
		L114.4,22.7L114.4,22.7z M121.5,34.1c-0.5,0.3-1.1,0.5-1.8,0.5h-0.2c-0.7,0-1.2-0.5-1.2-1.1c0,0,0,0,0,0c0-1,0.8-1.2,1.8-1.2h1.3
		L121.5,34.1z M115.9,29.8h2.6v-0.9c0.4-0.1,0.7-0.1,1.1-0.1c1.2,0,1.9,0.2,1.9,1.1v0.6h-1.9c-1.8,0-4.4,0.6-4.4,3.3
		c0,0.1,0,0.2,0,0.3c0,1.6,1.4,2.9,3.1,2.9c1.2,0.1,2.4-0.3,3.2-1.3l0,0v1h4.3v-2.5h-1.1v-4.5c0-2.9-1.5-3.5-4.3-3.5
		c-1.5,0-3,0.2-4.5,0.5L115.9,29.8L115.9,29.8z M126.5,22.2v2.6h1.1v9.4h-1.1v2.6h5.4v-2.6h-1.1v-0.7l1.7-1.3l1.3,2h-0.7v2.6h5.5
		v-2.5h-0.8l-2.6-3.8l2-1.5h1.2v-2.6h-5.5V29h0.8l-2.9,2.2v-8.9H126.5L126.5,22.2z M142.7,30.4c0-0.1,0-0.1,0-0.2c0.1-1,1-1.7,2-1.6
		c0.2-0.1,0.5,0,0.7,0.1c0.7,0.3,1.1,1,0.8,1.7c0,0,0,0,0,0H142.7 M142.6,32.4h6.7c0.4-3.2,0.1-6.1-4.4-6.1c-4.1,0-5.6,2.1-5.6,5.4
		s1.4,5.4,5.6,5.4c1.4,0,2.8-0.2,4.1-0.5l-0.4-2.5c-1.1,0.3-2.2,0.5-3.3,0.4h-0.2C143.8,34.6,142.7,33.6,142.6,32.4L142.6,32.4z
		 M155.4,34.3h-1.1v2.6h5.6v-2.6h-1.1v-9h1.1v-2.6h-5.6v2.6h1.2L155.4,34.3L155.4,34.3z M161.5,28.7V34c0,2.1,1,3.2,3.4,3.2
		c0.8,0,1.5-0.1,2.3-0.2l-0.3-2.4c-0.3,0.1-0.6,0.1-0.9,0.1c-0.1,0-0.2,0-0.3,0c-0.6-0.1-1.1-0.6-1-1.3v-4.7h2.5v-2.2h-2.5v-2.9
		h-2.8l-0.3,2.9l-1.4,0.2v2L161.5,28.7L161.5,28.7z M181.6,34.3h-1.1v-1.7l3.9-7.3h1.1v-2.6h-5.6v2.6h1.4l-2.1,4.3l0,0l-2.1-4.3h1.4
		v-2.6h-6.2v2.6h1.3l3.8,7.3v1.7h-1.1v2.6h5.6L181.6,34.3L181.6,34.3z M187.7,31.7c0-1.8,0.4-2.9,1.9-2.9s1.9,1,1.9,2.9
		s-0.4,2.8-1.9,2.8S187.7,33.5,187.7,31.7 M184.3,31.7c0,3.3,1.4,5.4,5.2,5.4s5.2-2.1,5.2-5.4s-1.4-5.4-5.2-5.4
		S184.3,28.4,184.3,31.7 M195.6,26.4V29h1.1v4.5c0,0.2,0,0.4,0,0.6c0.1,1.7,1.5,3,3.2,2.9c1.3,0,2.5-0.6,3.3-1.5l0,0v1.3h4.3v-2.6
		h-1.2v-7.9h-4.4V29h1.2v4.9c-0.6,0.3-1.2,0.6-1.9,0.6c-0.1,0-0.2,0-0.3,0c-0.8-0.1-1.3-0.9-1.1-1.6c0,0,0-0.1,0-0.1v-6.4
		L195.6,26.4L195.6,26.4z M208.3,26.4V29h1.1v5.3h-1.1v2.6h5.5v-2.6h-1.2v-4.5c1.1-0.4,2.3-0.7,3.5-0.6v-2.9c-1.4,0-2.7,0.7-3.5,1.9
		l0,0v-1.7H208.3z M223.1,29.8h2.6v-3.1c-1.5-0.4-3-0.5-4.5-0.5c-2.6,0-4.3,0.9-4.3,3.2s2,3.2,4.5,3.7c0.9,0.2,1.5,0.3,1.5,0.7
		s-0.5,0.8-1.5,0.8c-0.6,0-1.3,0-1.9-0.2v-0.9h-2.6v3.1c1.6,0.3,3.3,0.5,4.9,0.5c2.6,0,4.3-1.1,4.3-3.5c0-2.6-2.7-3-4.6-3.5
		c-1.1-0.2-1.4-0.4-1.4-0.8s0.4-0.7,1.3-0.7c0.6,0,1.2,0.1,1.7,0.2L223.1,29.8L223.1,29.8z M230.6,33.7h-3.1v3.2h3.2L230.6,33.7z
		 M50.9,8.1l9.3,3.1v3.7l-5.5-1.4v3.5l4.5,0.9v3.7l-4.5-0.6v3.7l5.5,0.4v3.6h-9.3V8.1z M31.3,36.8c0.2,3.2,7,3.6,7.9,9.6
		c0.8,5.2-2.6,8.2-6.3,7.3s-5.2-4.6-5.1-8.3l3.9,1c0.1,2.4,0.9,3.1,2,3.3h0.2c0.8-0.1,1.3-0.8,1.2-1.6c0,0,0,0,0,0
		c0-5.8-7.6-4.6-7.8-11.6c0-0.1,0-0.2,0-0.3c-0.1-3.3,2.5-6,5.8-6.1c3.8,0.1,5.6,3.2,5.4,7.5l-4.2-0.4c0.3-1-0.3-2.1-1.4-2.4
		c0,0,0,0,0,0h-0.2C31.9,35.1,31.2,35.9,31.3,36.8 M73.5,38c0,5.5-1.3,7.7-5.9,9.7c-3.8,1.7-4.2,1.9-12.2,5c-5,2-11.7,4.5-17.6,4.5
		s-12.6-2.6-17.6-4.5c-7.9-3.1-8.3-3.3-12.2-5c-4.6-2-5.9-4.2-5.9-9.7V22c0-7.2,3.2-9.6,7.8-11.5c1.6-0.7,2.3-1.1,10.5-4.2
		C27.3,3.9,33.4,2,37.8,2s10.5,1.9,17.3,4.4c8.2,3,8.9,3.5,10.5,4.1c4.6,1.9,7.9,4.3,7.9,11.5V38z M75.6,23c0-7.9-1.9-11-8.5-14
		c-1.4-0.6-2.9-1.3-11.5-4.5C45.8,0.9,40.8,0,37.8,0s-8,0.9-17.8,4.5C11.4,7.6,9.9,8.4,8.5,9C1.9,12,0,15.1,0,23v14.4
		c0,7.3,1.1,9.4,7.9,12.3c2.3,1,5.8,2.7,14.8,6.1c4.8,2,9.9,3.2,15.1,3.5c5.2-0.3,10.3-1.5,15.1-3.5c9-3.4,12.5-5.1,14.8-6.1
		c6.7-2.9,7.8-5,7.8-12.3L75.6,23 M11.5,30.4h4.1v17.2l-3.1-1.1V37l-2.3,8.7l-1-0.4l-1.9-9.1v8.5l-2.4-0.8V30.4h3.4l1.4,7.2
		L11.5,30.4z M20.3,42.5l1.1-6.7l1.2,7.2L20.3,42.5z M23.4,30.4h-3.9l-3.2,17.4l3.1,1l0.4-2.7l3.4,1l0.5,3.2l3.7,1.3L23.4,30.4
		L23.4,30.4z M68,35.3c0.1,0.9-0.5,1.7-1.4,1.9L65,37.5v-3.7l1.7-0.1c0.1,0,0.2,0,0.3,0C67.7,33.8,68.1,34.6,68,35.3 M69,39.3
		c1.2-1.1,1.9-2.7,1.8-4.4c0-2.6-1.3-4.5-3.6-4.5h-5.6v17l3.5-1.2v-5.4l1.2-0.2l1.6,4.7l3-1L69,39.3 M50.9,50.9V30.4h9.3V34
		l-5.5,0.4v3.4l4.8-0.6v3.7l-4.8,1v3.8l5.5-1.4v3.6L50.9,50.9L50.9,50.9z M40.1,35.4v-5h9.6v4.3L47,34.9v17.2l-4,1.3V35.2L40.1,35.4
		L40.1,35.4z M68,18.7c0,1.1-0.6,1.6-1.3,1.5L65,19.8v-3.7l1.7,0.4C67.5,16.9,68.1,17.7,68,18.7 M69,23c0.8-0.4,1.8-1.4,1.8-3.8
		c0.1-2.5-1.3-4.8-3.6-5.7l-5.7-1.9v17H65v-5.5l1.2,0.1l1.7,5.3h3L69,23 M44.3,23.9l5.4,0.4v4.3h-9.7V4.6L44.3,6L44.3,23.9z
		 M18.3,19.6c-0.1-3.5,0.8-5.9,1.6-6.2c1.2-0.4,2.1,2,2.2,5.4s-0.7,6-1.9,6.1S18.4,22.8,18.3,19.6 M15.1,20.2c0.2,5.1,2,8.7,5.1,8.7
		c3.7,0,5.6-4,5.5-10.4c-0.1-5.6-2.6-9.9-6-8.8C16.6,10.7,15,15,15.1,20.2 M30.5,18.2c-0.1-4.1,0.7-7,1.6-7.6c1.3-0.8,2.2,2,2.3,6.3
		s-0.6,7.4-1.9,7.5C31.2,24.5,30.6,21.8,30.5,18.2 M26.7,18.5c0.3,6.1,2.3,10.3,5.7,10.3c3.8,0,6.2-4.2,6.1-12.5
		c-0.1-6.8-3-12.2-6.8-10.7S26.5,12.7,26.7,18.5 M4.6,22.2c0.1,4,2,6.7,5,6.7c2.9-0.3,5.1-2.9,5-5.8l-3.1,0.2c0,1.2-0.9,2.2-2,2.4
		c-1.4,0.1-2-1.5-2.1-4c-0.1-2.5,0.5-4.5,1.9-4.9c0.1,0,0.2,0,0.3,0c0.9,0,1.5,0.7,1.5,1.6c0,0,0,0,0,0l3.2-0.6
		c-0.5-2.9-2.8-4.9-5.1-4.4C5.8,14.2,4.4,18.1,4.6,22.2"/>
</g>
</svg>
