<?xml version="1.0" encoding="utf-8"?>
<!-- Generator: Adobe Illustrator 22.0.1, SVG Export Plug-In . SVG Version: 6.00 Build 0)  -->
<svg version="1.1" id="Layer_1" xmlns="http://www.w3.org/2000/svg" xmlns:xlink="http://www.w3.org/1999/xlink" x="0px" y="0px"
	 viewBox="0 0 229.7 59.2" style="enable-background:new 0 0 229.7 59.2;" xml:space="preserve">
<g id="logo">
	<path d="M86.9,22.1L86.9,22.1 M229.7,22.1L229.7,22.1 M86.9,37L86.9,37 M229.7,37L229.7,37 M113.8,22.7h-5.1l-3.2,8.6l0,0l-3.2-8.6
		H97v2.5h1.2v9H97v2.5h5.4v-2.5h-1.2v-5.7l0,0l3.2,8.3h2l3-8.3l0,0v5.7h-1.2v2.5h5.6v-2.5h-1.2v-9h1V22.7L113.8,22.7z M120.9,34.1
		c-0.5,0.3-1,0.5-1.7,0.5H119c-0.7,0-1.2-0.5-1.2-1.2c0-1,0.7-1.2,1.7-1.2h1.4V34.1z M115.3,29.8l2.7-0.2v-0.8c0.5,0,0.8,0,1.2,0
		c1.2,0,1.9,0.2,1.9,1.2v0.5h-1.9c-1.9,0-4.4,0.7-4.4,3.4c0,0.2,0,0.2,0,0.3c0,1.7,1.4,2.9,3,2.9c1.2,0,2.2-0.3,3-1.4l0,0v1h4.4
		v-2.5h-1.2v-4.6c0-2.9-1.5-3.4-4.2-3.4c-1.5,0-3,0.2-4.6,0.5V29.8L115.3,29.8z M125.9,22.1v2.5h1.2v9.5h-1.2v2.5h5.4v-2.5h-1.2
		v-0.7l1.7-1.4l1.4,2h-0.7v2.5h5.4v-2.5h-0.8l-2.7-3.7l2-1.5h1.2v-2.5h-5.4v2.5h0.8l-2.9,2.2v-9H125.9L125.9,22.1z M142,30.3
		c0,0,0,0,0-0.2c0.2-0.8,1-1.7,2-1.5c0.2-0.2,0.5,0,0.7,0c0.7,0.2,1.2,1,0.8,1.7H142 M142,32.3h6.6c0.5-3.2,0.2-6.1-4.4-6.1
		c-4.1,0-5.6,2.2-5.6,5.6s1.5,5.4,5.6,5.4c1.4,0,2.7-0.2,4.1-0.5l-0.3-2.5c-1,0.2-2.2,0.3-3.2,0.3h-0.2
		C143.2,34.5,142.2,33.6,142,32.3L142,32.3z M154.8,34.1h-1.2v2.5h5.6v-2.5h-1.2v-9h1.2v-2.5h-5.6v2.5h1.2V34.1L154.8,34.1z
		 M160.9,28.6l-0.2,5.1c0,2.2,0.8,3.2,3.4,3.2c0.8,0,1.7,0,2.4-0.2l-0.3-2.4c-0.2,0.2-0.5,0.2-0.8,0.2c-0.2,0-0.2,0-0.3,0
		c-0.7,0-1-0.5-1-1.2v-4.7h2.5v-2.2H164v-2.9h-2.7l-0.3,2.9l-1.4,0.2v2H160.9L160.9,28.6z M180.9,34.1h-1v-1.7l3.9-7.3h1v-2.5h-5.6
		v2.5h1.4l-2,4.2l0,0l-2.2-4.2h1.4v-2.5h-6.3v2.5h1.4l3.7,7.3v1.7h-1.2v2.5h5.6V34.1L180.9,34.1z M187,31.6c0-1.9,0.3-2.9,1.9-2.9
		c1.5,0,1.9,1,1.9,2.9s-0.3,2.9-1.9,2.9C187.3,34.5,187,33.5,187,31.6 M183.6,31.6c0,3.2,1.4,5.4,5.2,5.4c3.9,0,5.2-2,5.2-5.4
		s-1.4-5.4-5.2-5.4C184.9,26.2,183.6,28.2,183.6,31.6 M194.7,26.4l0.2,2.5h1.2v4.6c0,0.2,0,0.5,0,0.7c0.2,1.7,1.5,2.9,3.2,2.9
		c1.2,0,2.4-0.5,3.2-1.5l0,0v1.2h4.2v-2.5h-1.2v-7.8h-4.4v2.5h1.2v4.9c-0.5,0.5-1.2,0.7-1.9,0.7c-0.2,0-0.2,0-0.3,0
		c-0.8-0.2-1.4-0.8-1.2-1.7v-6.4H194.7L194.7,26.4z M207.4,26.4l0,2.5h1.2v5.2h-1.2v2.5h5.4v-2.5h-1.2v-4.4c1.2-0.5,2.4-0.7,3.5-0.7
		v-2.9c-1.4,0-2.7,0.7-3.5,1.9l0,0v-1.7H207.4L207.4,26.4z M222.3,29.8l2.4,0.2v-3c-1.5-0.3-3-0.5-4.6-0.5c-2.5,0-4.2,0.8-4.2,3.2
		c0,2.5,2,3.4,4.6,3.7c0.8,0.2,1.5,0.2,1.5,0.7c0,0.3-0.5,0.7-1.5,0.7c-0.5,0-1.2,0-1.9-0.2v-1H216v2.9c1.7,0.3,3.2,0.5,4.9,0.5
		c2.5,0,4.2-1,4.2-3.4c0-2.5-2.7-3-4.6-3.4c-1-0.3-1.4-0.5-1.4-0.8c0-0.3,0.3-0.7,1.4-0.7c0.5,0,1.2,0,1.7,0.2V29.8L222.3,29.8z
		 M229.7,33.6h-3.2v3.2h3.2V33.6z M50.5,8.3l9.3,3V15l-5.4-1.5v3.4l4.6,0.8v3.7l-4.6-0.7v3.7l5.4,0.5v3.5h-9.3V8.3z M31.1,36.7
		c0.2,3.2,6.9,3.5,7.9,9.6c0.8,5.1-2.5,8.1-6.3,7.3c-3.7-0.8-5.1-4.7-5.1-8.3l3.9,1c0,2.4,0.8,3.2,2,3.4h0.2
		c0.8-0.2,1.4-0.8,1.2-1.7c0-5.7-7.6-4.6-7.8-11.5c0-0.2,0-0.2,0-0.3C27,33,29.8,30.1,33,30.1c3.9,0,5.6,3.2,5.4,7.4l-4.2-0.3
		c0.3-1-0.3-2-1.4-2.4h-0.2C31.6,34.8,30.9,35.8,31.1,36.7 M73.4,22v15.9c0,5.4-1.4,7.6-5.9,9.6c-3.9,1.7-4.2,1.9-12.2,4.9
		c-5.1,2-11.7,4.6-17.6,4.6s-12.5-2.5-17.6-4.6c-7.9-3-8.3-3.2-12.2-4.9c-4.6-2-5.9-4.1-5.9-9.6V22c0-7.1,3.2-9.6,7.8-11.5
		c1.7-0.7,2.4-1,10.5-4.1C27,3.9,33.1,2,37.5,2S48,3.9,54.8,6.4c8.1,2.9,8.8,3.4,10.5,4.1c4.6,2,7.8,4.4,7.8,11.5H73.4z M75.2,22.8
		C75.1,15,73.2,12,66.9,9c-1.4-0.7-2.9-1.5-11.5-4.6C45.6,0.8,40.7,0,37.7,0s-7.9,0.8-17.7,4.4C11.3,7.6,9.8,8.3,8.5,9
		C1.9,11.8,0,15,0,22.8v14.4c0,7.3,1,9.5,7.8,12.3c2.2,1,5.7,2.7,14.7,6.1c4.7,2,9.8,3.2,15,3.5c5.1-0.3,10.3-1.5,15-3.5
		c9-3.4,12.5-5.1,14.9-6.1c6.6-3,7.8-5.1,7.8-12.3V22.8 M11.5,30.3h4.1v17.2l-3.2-1V37L10,45.8l-1-0.3l-1.9-9.1v8.5L4.7,44V30.4h3.4
		l1.4,7.1L11.5,30.3z M20.1,42.4l1-6.6l1.2,7.1L20.1,42.4z M23.2,30.3l-3.9-0.2l-3.2,17.4l3,1l0.5-2.7l3.4,1l0.5,3.2l3.7,1.4
		L23.2,30.3L23.2,30.3z M67.6,35.2c0.2,0.8-0.5,1.7-1.4,2.2l-1.7,0.2v-3.7l1.7-0.2c0.2,0,0.2,0,0.3,0C67.3,33.6,67.8,34.5,67.6,35.2
		 M68.6,39.2c1.2-1.2,1.9-2.7,1.5-4.2c0-2.5-1.2-4.6-3.5-4.6H61v16.9l3.5-1.2v-5.4l1.2-0.3l1.7,4.7l3-1L68.6,39.2 M50.5,50.7V30.3
		h9.3v3.9l-5.4,0.3v3.4l4.7-0.7v3.5l-4.7,1v3.7l5.4-1.4v3.5L50.5,50.7L50.5,50.7z M39.7,35.3v-5.1h9.6v4.4l-2.7,0.2v17.2l-4.1,1.4
		V35.2L39.7,35.3L39.7,35.3z M67.6,18.6c0,1-0.5,1.7-1.4,1.5l-1.7-0.3v-3.7l1.7,0.5C67.1,16.7,67.8,17.7,67.6,18.6 M68.6,23
		c0.8-0.5,1.7-1.5,1.5-3.7c0.2-2.5-1.2-4.7-3.5-5.7L61,11.7v16.9h3.5v-5.4l1.2,0.2l1.7,5.2h3L68.6,23 M44,23.8l5.4,0.3v4.4h-9.6v-24
		L44,5.9V23.8z M18.1,19.6c-0.2-3.5,0.7-5.9,1.5-6.3c1.2-0.3,2.2,2,2.2,5.4c0.2,3.4-0.7,5.9-1.9,6.1C18.9,25,18.3,22.7,18.1,19.6
		 M14.9,20.1c0.2,5.1,2,8.6,5.1,8.6c3.7,0,5.7-3.9,5.6-10.3c-0.2-5.6-2.7-10-6.1-8.8C16.2,10.6,14.7,15,14.9,20.1 M30.1,18.1
		c0-4.1,0.7-6.9,1.5-7.6c1.4-0.8,2.2,2,2.4,6.3c0.2,4.1-0.5,7.3-1.9,7.4C30.9,24.3,30.3,21.6,30.1,18.1 M26.4,18.4
		c0.3,6.1,2.4,10.3,5.6,10.3c3.7,0,6.3-4.2,6.1-12.5c0-6.8-2.9-12.2-6.8-10.6C27.6,6.9,26,12.5,26.4,18.4 M4.4,22.1
		c0,3.9,1.9,6.6,5.1,6.8c2.9-0.3,5.1-2.9,4.9-5.7c-0.5,0.2-3,0.3-3,0.3c-0.2,1.2-0.8,2.2-2,2.4c-1.4,0.2-2-1.4-2-3.9
		c-0.2-2.5,0.3-4.6,1.9-4.9c0.2,0,0.2,0,0.3,0c0.8,0,1.5,0.7,1.5,1.5l3.2-0.7c-0.5-2.9-2.7-4.9-5.1-4.4C5.7,14.2,4.2,18.1,4.4,22.1"
		/>
</g>
</svg>
